<svg width="118" height="20" viewBox="0 0 118 20" fill="none" xmlns="http://www.w3.org/2000/svg">
<path d="M12.0522 14.0339C12.0522 15.6806 11.4542 16.9632 10.2582 17.8819C9.06217 18.8006 7.45017 19.2599 5.42217 19.2599C4.38217 19.2599 3.42017 19.1819 2.53617 19.0259C1.65217 18.8699 0.915505 18.6532 0.326172 18.3759V16.1399C0.950172 16.4172 1.72151 16.6686 2.64017 16.8939C3.57617 17.1192 4.53817 17.2319 5.52617 17.2319C6.91284 17.2319 7.95284 16.9632 8.64617 16.4259C9.35684 15.8886 9.71217 15.1606 9.71217 14.2419C9.71217 13.6352 9.58217 13.1239 9.32217 12.7079C9.06217 12.2919 8.61151 11.9106 7.97017 11.5639C7.34617 11.1999 6.47084 10.8186 5.34417 10.4199C3.76684 9.8479 2.57084 9.1459 1.75617 8.3139C0.958839 7.4819 0.560172 6.34657 0.560172 4.9079C0.560172 3.9199 0.811505 3.07924 1.31417 2.3859C1.81684 1.67524 2.51017 1.12924 3.39417 0.747902C4.29551 0.366569 5.32684 0.175902 6.48817 0.175902C7.51084 0.175902 8.44684 0.271235 9.29617 0.461901C10.1455 0.652569 10.9168 0.903902 11.6102 1.2159L10.8822 3.2179C10.2408 2.94057 9.53884 2.70657 8.77617 2.5159C8.03084 2.32524 7.25084 2.2299 6.43617 2.2299C5.27484 2.2299 4.39951 2.48124 3.81017 2.9839C3.22084 3.46924 2.92617 4.11924 2.92617 4.9339C2.92617 5.5579 3.05617 6.0779 3.31617 6.4939C3.57617 6.9099 4.00084 7.28257 4.59017 7.6119C5.17951 7.94124 5.97684 8.29657 6.98217 8.6779C8.07417 9.07657 8.99284 9.5099 9.73817 9.9779C10.5008 10.4286 11.0728 10.9746 11.4542 11.6159C11.8528 12.2572 12.0522 13.0632 12.0522 14.0339Z" fill="#090E4B"/>
<path d="M18.9377 18.9999H16.5977V2.4899H10.7997V0.435902H24.7097V2.4899H18.9377V18.9999Z" fill="#090E4B"/>
<path d="M34.5988 18.9999L32.3628 13.2539H25.0048L22.7948 18.9999H20.4288L27.6828 0.357903H29.7888L37.0168 18.9999H34.5988ZM29.5808 5.5579C29.5288 5.41924 29.4422 5.1679 29.3208 4.8039C29.1995 4.4399 29.0782 4.06724 28.9568 3.6859C28.8528 3.28723 28.7662 2.9839 28.6968 2.7759C28.5755 3.31324 28.4368 3.8419 28.2808 4.3619C28.1248 4.86457 27.9948 5.26324 27.8908 5.5579L25.7848 11.1739H31.6608L29.5808 5.5579Z" fill="#090E4B"/>
<path d="M51.5423 18.9999H48.8123L38.8803 3.5819H38.7763C38.811 4.18857 38.8543 4.94257 38.9063 5.8439C38.9583 6.74524 38.9843 7.67257 38.9843 8.6259V18.9999H36.8263V0.435902H39.5303L49.4363 15.8019H49.5403C49.523 15.5246 49.497 15.1086 49.4623 14.5539C49.445 13.9992 49.419 13.3926 49.3843 12.7339C49.367 12.0752 49.3583 11.4686 49.3583 10.9139V0.435902H51.5423V18.9999Z" fill="#090E4B"/>
<path d="M59.1542 0.435902C61.4769 0.435902 63.2276 0.782569 64.4062 1.4759C65.6022 2.1519 66.2002 3.33924 66.2002 5.0379C66.2002 6.1299 65.8969 7.0399 65.2902 7.7679C64.6836 8.47857 63.8082 8.9379 62.6642 9.1459V9.2759C63.4442 9.39724 64.1462 9.62257 64.7702 9.9519C65.4116 10.2812 65.9142 10.7492 66.2782 11.3559C66.6422 11.9626 66.8242 12.7512 66.8242 13.7219C66.8242 15.4032 66.2436 16.7032 65.0822 17.6219C63.9382 18.5406 62.3696 18.9999 60.3762 18.9999H53.8502V0.435902H59.1542ZM59.6222 8.3399C61.2169 8.3399 62.3089 8.08857 62.8982 7.5859C63.4876 7.0659 63.7822 6.30324 63.7822 5.2979C63.7822 4.27524 63.4182 3.54724 62.6902 3.1139C61.9796 2.66324 60.8356 2.4379 59.2582 2.4379H56.1902V8.3399H59.6222ZM56.1902 10.2899V17.0239H59.9342C61.5809 17.0239 62.7249 16.7032 63.3662 16.0619C64.0076 15.4206 64.3282 14.5799 64.3282 13.5399C64.3282 12.5692 63.9902 11.7892 63.3142 11.1999C62.6556 10.5932 61.4682 10.2899 59.7522 10.2899H56.1902Z" fill="#090E4B"/>
<path d="M84.2284 9.6919C84.2284 11.6159 83.899 13.2972 83.2404 14.7359C82.599 16.1572 81.6457 17.2666 80.3804 18.0639C79.115 18.8612 77.5464 19.2599 75.6744 19.2599C73.7504 19.2599 72.147 18.8612 70.8644 18.0639C69.599 17.2666 68.6544 16.1486 68.0304 14.7099C67.4064 13.2712 67.0944 11.5899 67.0944 9.6659C67.0944 7.75924 67.4064 6.09524 68.0304 4.6739C68.6544 3.25257 69.599 2.14324 70.8644 1.3459C72.147 0.548569 73.759 0.149902 75.7004 0.149902C77.555 0.149902 79.115 0.548569 80.3804 1.3459C81.6457 2.1259 82.599 3.23524 83.2404 4.6739C83.899 6.09524 84.2284 7.7679 84.2284 9.6919ZM69.5644 9.6919C69.5644 12.0319 70.0584 13.8779 71.0464 15.2299C72.0344 16.5646 73.577 17.2319 75.6744 17.2319C77.789 17.2319 79.3317 16.5646 80.3024 15.2299C81.273 13.8779 81.7584 12.0319 81.7584 9.6919C81.7584 7.3519 81.273 5.52324 80.3024 4.2059C79.3317 2.87124 77.7977 2.2039 75.7004 2.2039C73.603 2.2039 72.0517 2.87124 71.0464 4.2059C70.0584 5.52324 69.5644 7.3519 69.5644 9.6919Z" fill="#090E4B"/>
<path d="M100.329 18.9999H97.5989L87.6669 3.5819H87.5629C87.5975 4.18857 87.6409 4.94257 87.6929 5.8439C87.7449 6.74524 87.7709 7.67257 87.7709 8.6259V18.9999H85.6129V0.435902H88.3169L98.2229 15.8019H98.3269C98.3095 15.5246 98.2835 15.1086 98.2489 14.5539C98.2315 13.9992 98.2055 13.3926 98.1709 12.7339C98.1535 12.0752 98.1449 11.4686 98.1449 10.9139V0.435902H100.329V18.9999Z" fill="#090E4B"/>
<path d="M117.509 9.5359C117.509 12.6732 116.651 15.0392 114.935 16.6339C113.236 18.2112 110.861 18.9999 107.811 18.9999H102.637V0.435902H108.357C110.229 0.435902 111.849 0.782569 113.219 1.4759C114.588 2.16924 115.645 3.1919 116.391 4.5439C117.136 5.87857 117.509 7.54257 117.509 9.5359ZM115.039 9.6139C115.039 7.13524 114.423 5.3239 113.193 4.1799C111.979 3.01857 110.255 2.4379 108.019 2.4379H104.977V16.9979H107.499C112.525 16.9979 115.039 14.5366 115.039 9.6139Z" fill="#090E4B"/>
</svg>
