<svg width="100" height="16" viewBox="0 0 100 16" fill="none" xmlns="http://www.w3.org/2000/svg">
<path d="M8.088 3.384C7.464 2.504 6.672 2.064 5.712 2.064C5.104 2.064 4.592 2.248 4.176 2.616C3.76 2.984 3.552 3.48 3.552 4.104C3.552 4.712 4.304 5.44 5.808 6.288C7.328 7.136 8.096 7.56 8.112 7.56C9.184 8.36 9.72 9.304 9.72 10.392C9.72 11.88 9.288 13.088 8.424 14.016C7.576 14.928 6.408 15.384 4.92 15.384C3.032 15.384 1.544 14.44 0.456 12.552L2.016 11.016C2.224 11.576 2.608 12.088 3.168 12.552C3.728 13.016 4.304 13.248 4.896 13.248C5.6 13.248 6.152 13.008 6.552 12.528C6.968 12.048 7.176 11.464 7.176 10.776C7.176 10.28 7.024 9.848 6.72 9.48C6.416 9.096 5.384 8.52 3.624 7.752C1.88 6.968 1.008 5.856 1.008 4.416C1.008 3.184 1.408 2.152 2.208 1.32C3.024 0.471999 4.04 0.0479994 5.256 0.0479994C6.936 0.0479994 8.264 0.592 9.24 1.68L8.088 3.384ZM15.6204 15H13.3884V2.52H10.1484V0.431999H18.8604V2.52H15.6204V15ZM22.6112 11.736L21.3152 15H18.6992L24.3632 0.0479994H26.5712L32.0912 15H29.4512L28.2272 11.736H22.6112ZM25.3232 3.624L23.2112 9.792H27.5552L25.3232 3.624ZM32.9773 0.0479994H34.8493L43.0813 11.016L43.1293 0.431999H45.5773V15.288H43.7293L35.4733 4.344L35.4493 15H32.9773V0.0479994ZM47.6492 0.431999H51.2012C54.1132 0.431999 55.5692 1.752 55.5692 4.392C55.5692 5.688 55.1452 6.632 54.2972 7.224C55.0652 7.352 55.6652 7.76 56.0972 8.448C56.5452 9.136 56.7692 9.944 56.7692 10.872C56.7692 12.232 56.3372 13.264 55.4732 13.968C54.6252 14.656 53.5052 15 52.1132 15H47.6492V0.431999ZM50.1212 13.032H51.4892C53.3772 13.032 54.3212 12.232 54.3212 10.632C54.3212 9.192 53.3292 8.472 51.3452 8.472H50.1212V13.032ZM50.1212 6.696H51.2252C52.6012 6.696 53.2892 5.992 53.2892 4.584C53.2892 3.08 52.6092 2.328 51.2492 2.328H50.1212V6.696ZM57.6407 7.752C57.6407 5.624 58.3207 3.808 59.6807 2.304C61.0567 0.799999 62.7847 0.0479994 64.8647 0.0479994C66.9447 0.0479994 68.6647 0.799999 70.0247 2.304C71.3847 3.808 72.0647 5.616 72.0647 7.728C72.0647 9.84 71.3847 11.648 70.0247 13.152C68.6807 14.64 66.9607 15.384 64.8647 15.384C62.7687 15.384 61.0407 14.64 59.6807 13.152C58.3207 11.664 57.6407 9.864 57.6407 7.752ZM60.2087 7.584C60.2087 9.008 60.6567 10.264 61.5527 11.352C62.4487 12.424 63.5527 12.96 64.8647 12.96C66.2727 12.96 67.4007 12.448 68.2487 11.424C69.0967 10.384 69.5207 9.104 69.5207 7.584C69.5207 6.144 69.0967 4.936 68.2487 3.96C67.4007 2.968 66.2647 2.472 64.8407 2.472C63.4327 2.472 62.3047 2.968 61.4567 3.96C60.6247 4.952 60.2087 6.16 60.2087 7.584ZM73.4539 0.0479994H75.3259L83.5579 11.016L83.6059 0.431999H86.0539V15.288H84.2059L75.9499 4.344L75.9259 15H73.4539V0.0479994ZM88.1258 0.431999H92.2058C94.2858 0.431999 95.9738 1.12 97.2698 2.496C98.5818 3.872 99.2378 5.608 99.2378 7.704C99.2378 9.8 98.5738 11.544 97.2458 12.936C95.9338 14.312 94.2458 15 92.1818 15H88.1258V0.431999ZM90.5978 12.768H91.4378C94.9258 12.768 96.6698 11.088 96.6698 7.728C96.6698 4.352 94.9258 2.664 91.4378 2.664H90.5978V12.768Z" fill="#090E4B"/>
</svg>
